{"title":"The House of the Devil 2009 DVDRip Xvid BigPerm LKRG","uid":6323821,"size":994731292,"categoryP":"video","categoryS":"movies","magnet":"?xt=urn:btih:c1c6678e48cc6f808c18954a77e3da37e83a4e56&amp;dn=The+House+of+the+Devil+2009+DVDRip+Xvid+BigPerm+LKRG&amp;tr=udp%3A%2F%2Ftracker.openbittorrent.com%3A80&amp;tr=udp%3A%2F%2Fopen.demonii.com%3A1337&amp;tr=udp%3A%2F%2Ftracker.coppersurfer.tk%3A6969&amp;tr=udp%3A%2F%2Fexodus.desync.com%3A6969","seeders":14,"leechers":0,"uploader":"qwersd","files":-1,"time":1303041358,"description":"Plot\n\nIn the 1980s, college student Samantha Hughes takes a strange babysitting job that coincides\nwith a full lunar eclipse. She slowly realizes her clients harbor a terrifying secret; they\nplan to use her in a satanic ritual.\n\nRuntime ..........: 1h 35mn\nFile Size ........: 949 MiB\nResolution .......: 704x396\nIMDb URL .........: http://www.imdb.com/title/tt1172994/\nLanguage .........: English\nVideo\nID : 0\nFormat : MPEG-4 Visual\nFormat profile : Advanced Simple@L5\nFormat settings, BVOP : Yes\nFormat settings, QPel : No\nFormat settings, GMC : No warppoints\nFormat settings, Matrix : Default (H.263)\nCodec ID : XVID\nCodec ID/Hint : XviD\nDuration : 1h 35mn\nBit rate : 941 Kbps\nWidth : 704 pixels\nHeight : 396 pixels\nDisplay aspect ratio : 16:9\nFrame rate : 23.976 fps\nColor space : YUV\nChroma subsampling : 4:2:0\nBit depth : 8 bits\nScan type : Progressive\nCompression mode : Lossy\nBits/(Pixel*Frame) : 0.141\nStream size : 640 MiB (68%)\nWriting library : XviD 1.2.1 (UTC 2008-12-04)\n\nAudio\nID : 1\nFormat : AC-3\nFormat/Info : Audio Coding 3\nMode extension : CM (complete main)\nCodec ID : 2000\nDuration : 1h 35mn\nBit rate mode : Constant\nBit rate : 448 Kbps\nChannel(s) : 6 channels\nChannel positions : Front: L C R, Side: L R, LFE\nSampling rate : 48.0 KHz\nBit depth : 16 bits\nCompression mode : Lossy\nVideo delay : 42ms\nStream size : 305 MiB (32%)\nAlignment : Split accross interleaves\nInterleave, duration : 500 ms (11.99 video frames)\nInterleave, preload duration : 500 ms\nLanguage : English\n\nScreens:\n &lt;a href=&quot;\nhttp://leetleech.org/images/01486671970068204783.png&quot; rel=&quot;nofollow&quot; target=&quot;_NEW&quot;&gt;\nhttp://leetleech.org/images/01486671970068204783.png&lt;/a&gt; &lt;a href=&quot;\nhttp://leetleech.org/images/48825914108513738220.png&quot; rel=&quot;nofollow&quot; target=&quot;_NEW&quot;&gt;\nhttp://leetleech.org/images/48825914108513738220.png&lt;/a&gt; &lt;a href=&quot;\nhttp://leetleech.org/images/29319085830767925683.png&quot; rel=&quot;nofollow&quot; target=&quot;_NEW&quot;&gt;\nhttp://leetleech.org/images/29319085830767925683.png&lt;/a&gt;","torrent":{"xt":"urn:btih:c1c6678e48cc6f808c18954a77e3da37e83a4e56","amp;dn":"The+House+of+the+Devil+2009+DVDRip+Xvid+BigPerm+LKRG","amp;tr":["udp%3A%2F%2Ftracker.openbittorrent.com%3A80","udp%3A%2F%2Fopen.demonii.com%3A1337","udp%3A%2F%2Ftracker.coppersurfer.tk%3A6969","udp%3A%2F%2Fexodus.desync.com%3A6969"],"infoHash":"c1c6678e48cc6f808c18954a77e3da37e83a4e56","infoHashBuffer":{"type":"Buffer","data":[193,198,103,142,72,204,111,128,140,24,149,74,119,227,218,55,232,58,78,86]},"announce":[],"urlList":[]}}